<?xml version="1.0" encoding="UTF-8"?>
<svg xmlns="http://www.w3.org/2000/svg" id="Layer_1" data-name="Layer 1" viewBox="0 0 792.65 246.09">
  <defs>
    <style>
      .cls-1 {
        fill: #fff;
      }
    </style>
  </defs>
  <path class="cls-1" d="M11.66,11.53c0-1.9-5.32-6.97-7.1-6.97H0V0H26.87l27.63,69.57h.63L84.27,0h24.08V4.56h-4.56c-1.77,0-7.1,5.07-7.1,6.97V80.73c0,1.9,5.32,6.97,7.1,6.97h4.56v4.56h-35.74v-4.56h4.56c1.77,0,7.1-5.07,7.1-6.97V13.56L50.69,93.91,17.11,12.17V80.73c0,1.9,5.32,6.97,7.1,6.97h4.56v4.56H0v-4.56H4.56c1.77,0,7.1-5.07,7.1-6.97V11.53Z"></path>
  <path class="cls-1" d="M147.18,52.85c1.65-9.25,.13-17.62-10.14-17.62-11.91,0-17.74,9.5-17.74,23.57,0,13.3,8.49,24.33,22.18,24.33,10.39,0,14.83-3.68,19.01-10.65h3.67c-3.93,13.05-11.91,21.29-26.87,21.29-16.6,0-27.37-14.19-27.37-31.17,0-19.26,12.8-31.94,28.51-31.94,9.38,0,15.71,2.91,21.16,8.36l-8.75,13.56-3.67,.25Z"></path>
  <g>
    <path class="cls-1" d="M267.82,18.25c4.43,0,7.73-3.04,7.73-7.73s-3.3-7.6-7.73-7.6-7.86,2.91-7.86,7.6,3.42,7.73,7.86,7.73Z"></path>
    <path class="cls-1" d="M352.73,87.7c-1.77,0-6.59-4.31-6.59-6.34V48.03c0-10.26-7.35-17.11-16.6-17.11-10.77,0-16.35,6.21-23.57,13.56l-2.28-12.29h-18.88v4.56h3.68c1.77,0,6.59,4.44,6.59,6.34v38.27c0,2.03-4.82,6.34-6.59,6.34h-7.35c-1.65,0-6.59-4.31-6.59-6.34V32.19h-21.42v4.56h3.68c1.77,0,6.59,4.44,6.59,6.34v38.27c0,2.03-4.82,6.34-6.59,6.34h-6.72c-1.9,0-9.38-5.7-10.9-7.73l-32.31-42.96,22.43-24.08c1.27-1.39,10.01-8.36,11.79-8.36h4.43V0h-33.46V4.56h4.43c1.77,0,6.97,6.34,5.58,7.98l-32.95,36.75V11.53c0-1.9,5.32-6.97,7.1-6.97h4.56V0h-35.99V4.56h4.56c1.77,0,7.1,5.07,7.1,6.97V80.73c0,1.9-5.32,6.97-7.1,6.97h-4.56v4.56h35.99v-4.56h-4.56c-1.77,0-7.1-5.07-7.1-6.97v-24.46l9.38-10.14,31.93,46.13h85.67v-4.56h-3.42c-1.77,0-6.59-4.31-6.59-6.34v-30.54c0-4.06,11.03-12.42,19.52-12.42,6.46,0,9.5,4.43,9.5,10.26v32.7c0,2.03-4.82,6.34-6.59,6.34h-3.42v4.56h30.67v-4.56h-3.04Z"></path>
  </g>
  <path class="cls-1" d="M363.86,71.22c0,5.58,8.11,17.62,21.04,17.62,7.48,0,11.66-2.66,11.66-8.24,0-6.72-5.96-9-11.28-11.28-4.18-1.77-7.6-3.17-12.42-5.32-7.22-3.29-12.67-8.11-12.67-16.35,0-10.77,6.46-16.98,18-16.98,6.59,0,10.27,3.17,14.83,3.17,1.77,0,2.79-.38,3.29-1.65h3.29v18.5h-3.67c0-4.94-6.97-15.46-18.12-15.46-6.97,0-10.26,3.04-10.26,7.98,0,5.2,3.55,7.1,9.76,9.76,4.56,1.9,7.98,3.42,12.93,5.32,6.46,2.53,13.81,7.73,13.81,17.36,0,11.4-7.86,18.12-19.14,18.12-7.6,0-12.04-3.55-17.24-3.55-2.41,0-3.04,.63-4.56,2.03h-2.91v-21.04h3.68Z"></path>
  <path class="cls-1" d="M407.72,62.22c0-17.74,12.04-31.56,27.5-31.43,13.56,.13,21.16,9.38,21.8,21.04l.25,4.31-39.92,3.17c0,12.04,8.36,23.95,21.92,23.95,10.27,0,14.95-3.93,18.63-10.77h3.68c-3.93,13.05-11.4,21.16-26.11,21.16-16.73,0-27.75-14.57-27.75-31.43Zm39.29-9.76c1.01-8.49-.38-17.11-12.04-17.11-12.42,0-17.36,10.26-17.74,19.64l29.78-2.53Z"></path>
  <path class="cls-1" d="M467.53,43.6c-.89-2.03-6.21-6.84-7.73-6.84h-2.66v-4.56h31.81v4.56h-3.68c-1.65,0-5.32,4.18-5.32,6.46l13.94,32.06,13.69-31.93c.13-2.41-3.55-6.59-5.2-6.59h-3.67v-4.56h23.95v4.56h-2.79c-1.39,0-5.7,4.56-6.97,6.59l-20.4,46-15.08,33.2-5.45-2.53,15.97-32.7-20.4-43.72Z"></path>
  <path class="cls-1" d="M178.22,139.9c0,7.35,5.07,13.31,13.05,16.35,11.91,12.8,26.23,26.36,38.78,37.51,3.55-5.83,4.81-12.04,4.81-19.64,0-8.49-5.58-13.56-14.57-13.81v-4.56h32.7v4.56h-3.55c-1.78,0-8.11,7.22-8.24,10.01-.25,7.86-2.41,17.62-8.24,25.98,6.72,5.83,13.43,11.28,18.75,14.95h5.58v4.56h-10.01c-9,0-15.33-2.41-22.94-9.38-7.35,7.1-16.73,11.03-30.29,11.03-14.95,0-29.27-11.03-29.27-27.25,0-12.8,6.46-22.18,14.83-28.01-4.43-5.7-7.48-11.15-7.48-19.26,0-13.18,8.62-20.53,22.18-20.53,8.49,0,12.93,2.79,16.85,2.79,2.03,0,3.3-.13,4.31-1.65h3.93v21.8h-3.93c0-6.21-9.12-18.63-21.42-18.63-9.88,0-15.84,4.82-15.84,13.18Zm-3.93,44.35c0,13.18,14.07,25.85,27.25,25.85,8.24,0,14.83-2.28,20.02-6.21-13.43-11.53-28.39-25.98-39.92-39.16-4.82,4.94-7.35,10.01-7.35,19.52Z"></path>
  <path class="cls-1" d="M352.01,156.24c0-9.5-10.64-28.77-28.01-28.77-15.97,0-25.47,8.87-27.12,29.65-.63,8.11-.38,15.33,.25,23.44,1.52,16.1,12.67,29.4,31.43,29.4,15.97,0,23.7-6.72,29.66-18.88h4.81c-5.96,16.47-18.88,26.36-37.26,26.36-26.49,0-43.59-21.8-43.59-48.16s15.46-47.4,41.31-47.4c9.88,0,16.1,4.06,23.32,4.06,2.91,0,4.31-.76,5.7-2.41h3.42v32.69h-3.93Z"></path>
  <path class="cls-1" d="M369.25,185.77c0-19.39,13.94-31.56,29.78-31.56s29.78,12.17,29.78,31.56-13.94,31.68-29.78,31.68-29.78-12.29-29.78-31.68Zm47.52,10.01c.76-6.08,.76-14.32,0-20.4-1.14-9.63-6.46-16.09-17.62-16.09s-16.22,6.46-17.61,15.97c-.89,5.83-.89,14.45,0,20.4,1.39,9.25,6.59,16.1,17.61,16.1s16.47-6.59,17.62-15.97Z"></path>
  <path class="cls-1" d="M525.99,204.91c0,2.03,4.56,6.34,6.34,6.34h2.79v4.56h-29.91v-4.56h3.42c1.77,0,6.34-4.31,6.34-6.34v-33.33c0-5.83-2.91-9.88-9.38-9.88-7.86,0-17.62,7.6-17.62,11.66v31.56c0,2.03,4.56,6.34,6.34,6.34h3.42v4.56h-30.54v-4.56h3.42c1.77,0,6.34-4.31,6.34-6.34v-33.33c0-5.83-3.04-9.88-9.5-9.88-7.86,0-17.62,7.98-17.62,12.04v31.17c0,2.03,4.56,6.34,6.34,6.34h3.42v4.56h-30.54v-4.56h3.42c1.77,0,6.34-4.31,6.34-6.34v-38.27c0-1.9-4.56-6.34-6.34-6.34h-3.42v-4.56h18.38l2.41,11.53c6.84-7.22,11.28-12.8,21.8-12.8,7.98,0,14.7,4.31,15.84,12.67,7.35-7.22,12.04-12.55,22.18-12.55,9,0,16.35,6.08,16.35,16.98v33.33Z"></path>
  <path class="cls-1" d="M552.84,155.74l2.03,12.29c5.2-9.63,11.79-13.81,21.67-13.81,14.57,0,23.44,12.29,23.44,30.67s-10.14,32.19-24.71,32.19c-10.52,0-16.1-4.06-20.4-11.78v28.64c0,2.03,4.69,6.34,6.34,6.34h3.93v4.56h-31.68v-4.56h3.93c1.77,0,6.34-4.31,6.34-6.34v-67.29c0-1.9-4.56-6.34-6.34-6.34h-3.93v-4.56h19.39Zm1.9,21.92v15.72c0,9.38,7.22,17.36,17.36,17.36s15.08-6.46,16.35-15.97c.76-5.7,.89-12.29,.13-17.87-1.27-9.5-6.46-15.59-15.08-15.59-10.14,0-15.84,6.97-18.75,16.35Z"></path>
  <path class="cls-1" d="M730.08,211.24c-1.77,0-6.59-4.31-6.59-6.34v-33.33c0-10.26-7.35-17.11-16.6-17.11-10.77,0-16.35,6.21-23.57,13.56l-2.28-12.29h-18.88v4.56h3.68c1.77,0,6.59,4.44,6.59,6.34v38.27c0,2.03-4.82,6.34-6.59,6.34h-7.22c-1.65,0-6.59-4.31-6.59-6.34v-32.69c0-11.79-9.5-17.87-22.43-17.87-12.17,0-19.14,4.18-24.08,9.25l7.98,12.04h4.31c-4.43-10.26-1.14-16.85,9.12-16.85,10.77,0,14.19,4.82,14.07,13.31l-.13,7.48-15.46,3.17c-8.49,1.77-19.39,5.96-19.39,17.87,0,9.76,6.97,16.35,15.21,16.35,8.87,0,15.21-6.97,20.02-13.18l1.52,12.04h50.69v-4.56h-3.42c-1.78,0-6.59-4.31-6.59-6.34v-30.54c0-4.06,11.03-12.42,19.52-12.42,6.46,0,9.5,4.43,9.5,10.27v32.69c0,2.03-4.82,6.34-6.59,6.34h-3.42v4.56h30.67v-4.56h-3.04Zm-89.09-13.05c-2.53,4.43-8.87,10.52-14.7,10.52s-9.63-4.44-9.63-9.63c0-5.96,2.53-10.01,10.01-11.91l14.32-3.68v14.7Z"></path>
  <path class="cls-1" d="M737.52,167.14c-.89-2.03-6.21-6.84-7.73-6.84h-2.66v-4.56h31.81v4.56h-3.68c-1.65,0-5.32,4.18-5.32,6.46l13.94,32.06,13.69-31.93c.13-2.41-3.55-6.59-5.2-6.59h-3.67v-4.56h23.95v4.56h-2.79c-1.39,0-5.7,4.56-6.97,6.59l-20.4,46-15.08,33.2-5.45-2.53,15.97-32.7-20.4-43.72Z"></path>
</svg>
